<?xml version="1.0" encoding="utf-8"?>
<!-- Uploaded to: SVG Repo, www.svgrepo.com, Generator: SVG Repo Mixer Tools -->
<svg fill="#000000" version="1.1" id="Layer_1" xmlns="http://www.w3.org/2000/svg" xmlns:xlink="http://www.w3.org/1999/xlink" 
	 width="800px" height="800px" viewBox="0 0 256 190" enable-background="new 0 0 256 190" xml:space="preserve">
<path d="M48.12,27.903C48.12,13.564,59.592,2,74.023,2c14.339,0,25.903,11.564,25.903,25.903
	C99.834,42.335,88.27,53.806,74.023,53.806C59.684,53.806,48.12,42.242,48.12,27.903z M191,139h-47V97c0-20.461-17.881-37-38-37H43
	C20.912,60,1.99,79.14,2,98v77c-0.026,8.533,6.001,12.989,12,13c6.014,0.011,12-4.445,12-13v-75h8v88h78v-88h8l0.081,50.37
	c-0.053,8.729,5.342,12.446,10.919,12.63h60C207.363,163,207.363,139,191,139z M217.544,122.684h7.812v5.859H185.54
	c-0.046,0,0.104-0.43,0.104-0.43v-5.384c0-0.007-0.078-0.026-0.104-0.045h7.916v-8.463h-31.274c-2.728,0-5.182-2.155-5.182-4.883
	V51.939c0-2.728,2.454-5.423,5.182-5.423h86.675c2.728,0,5.143,2.656,5.143,5.423v57.399c0,2.728-2.383,4.883-5.11,4.883h-31.346
	V122.684z M246.839,103.153V54.979h-82.027v48.174H246.839z"/>
</svg>